<?xml version="1.0" encoding="UTF-8" standalone="no"?>
<svg
   xmlns:dc="http://purl.org/dc/elements/1.1/"
   xmlns:cc="http://creativecommons.org/ns#"
   xmlns:rdf="http://www.w3.org/1999/02/22-rdf-syntax-ns#"
   xmlns:svg="http://www.w3.org/2000/svg"
   xmlns="http://www.w3.org/2000/svg"
   xmlns:sodipodi="http://sodipodi.sourceforge.net/DTD/sodipodi-0.dtd"
   xmlns:inkscape="http://www.inkscape.org/namespaces/inkscape"
   inkscape:version="1.0 (4035a4fb49, 2020-05-01)"
   sodipodi:docname="eagle-silhouette-4892371.svg"
   id="svg98"
   version="1.1"
   width="1024"
   height="1024"
   viewBox="0 0 1024 1024">
  <metadata
     id="metadata102">
    <rdf:RDF>
      <cc:Work
         rdf:about="">
        <dc:format>image/svg+xml</dc:format>
        <dc:type
           rdf:resource="http://purl.org/dc/dcmitype/StillImage" />
      </cc:Work>
    </rdf:RDF>
  </metadata>
  <sodipodi:namedview
     inkscape:current-layer="svg98"
     inkscape:window-maximized="1"
     inkscape:window-y="-8"
     inkscape:window-x="-8"
     inkscape:cy="404.69275"
     inkscape:cx="304.53489"
     inkscape:zoom="0.82910156"
     showgrid="false"
     id="namedview100"
     inkscape:window-height="1017"
     inkscape:window-width="1920"
     inkscape:pageshadow="2"
     inkscape:pageopacity="0"
     guidetolerance="10"
     gridtolerance="10"
     objecttolerance="10"
     borderopacity="1"
     bordercolor="#666666"
     pagecolor="#ffffff" />
  <defs
     id="defs6">
    <clipPath
       clipPathUnits="userSpaceOnUse"
       id="clipPath18">
      <path
         d="M 0,464.661 H 832.17 V 0 H 0 Z"
         id="path16" />
    </clipPath>
  </defs>
  <g
     style="fill:#4d4d4d"
     id="g10"
     transform="matrix(1.2317379,0,0,-1.6056868,-15.875974,888.18539)">
    <g
       style="fill:#4d4d4d"
       transform="translate(12.889085,8.141343)"
       id="g12">
      <g
         style="fill:#4d4d4d"
         id="g14"
         clip-path="url(#clipPath18)">
        <g
           style="fill:#4d4d4d"
           id="g20"
           transform="translate(415.9771,142.3539)">
          <path
             sodipodi:nodetypes="cccscsccccccccc"
             d="M 0.52580534,16.31093 C -17.864564,48.255557 -38.109252,64.625535 -54.452,91.845 c -0.797,1.328 -1.286,2.689 -1.498,4.239 -2.308,16.953 -4.643,33.902 -7.039,50.842 -0.463,3.274 -0.532,6.407 0.329,9.689 3.346,12.757 6.466,25.573 9.672,38.366 0.193,0.77 0.41,1.534 0.72,2.69 9.985322,-13.04115 29.254604,-43.99659 39.539879,-54.24094 18.4625964,21.05516 40.754993,45.40567 58.367121,65.20094 0.335,-0.969 0.613,-1.679 0.829,-2.408 4.798,-16.17 9.6,-32.338 14.353,-48.521 0.305,-1.04 0.398,-2.211 0.296,-3.293 -1.165,-12.339 -2.391,-24.672 -3.593,-37.007 -0.683,-7.003 -1.403,-14.004 -1.993,-21.015 -0.154,-1.817 -0.693,-3.38 -1.606,-4.929"
             style="fill:#4d4d4d;fill-opacity:1;fill-rule:nonzero;stroke:none"
             id="path22" />
        </g>
        <g
           style="fill:#4d4d4d"
           id="g24"
           transform="translate(404.3775,414.623)">
          <path
             sodipodi:nodetypes="ccccccccccsccccccccccc"
             d="m 0,0 c -4.4805131,8.2696466 -16.304265,12.016246 -20.109,12.396 0.307,-0.668 0.45,-1.109 0.693,-1.484 C -14.706858,4.4816091 -6.570693,1.336947 0,0 M 56.171,-60.333 C 47.289827,-64.407981 14.247828,-84.342307 -5.0615958,-97.218735 -17.613266,-87.160735 -25.67733,-81.146406 -38.267,-72.031 c -1.132,1.123 -1.297,2.093 -0.887,3.592 2.294,8.404 4.437,16.85 6.707,25.26 0.455,1.684 0.444,3.239 -0.014,4.916 -2.9,10.642 -5.733,21.303 -8.586,31.957 -0.123,0.459 -0.225,0.924 -0.401,1.645 6.636,4.75 13.307,9.526 20.077,14.372 -0.912,4.03 -1.803,7.971 -2.778,12.279 6.589,-0.508 12.864,-0.977 19.134,-1.5 0.521,-0.043 1.02,-0.436 1.515,-0.694 7.379,-3.833 14.747,-7.686 22.14,-11.49 1.181,-0.608 2.068,-1.403 2.77,-2.533 9.525,-15.355 19.079,-30.692 28.613,-46.043 0.375,-0.604 0.701,-1.265 0.908,-1.942 1.681,-5.504 3.332,-11.017 4.978,-16.532 0.133,-0.448 0.157,-0.929 0.262,-1.589"
             style="fill:#4d4d4d;fill-opacity:1;fill-rule:nonzero;stroke:none"
             id="path26" />
        </g>
        <g
           style="fill:#4d4d4d"
           id="g28"
           transform="translate(562.003,410.7929)" />
        <g
           style="fill:#4d4d4d"
           id="g32"
           transform="translate(355.877,242.205)" />
        <g
           style="fill:#4d4d4d"
           id="g36"
           transform="translate(557.6768,410.623)">
          <path
             sodipodi:nodetypes="ccccc"
             d="M 0,0 C 0.39126683,-44.497198 -38.908915,-105.64626 -65.152915,-141.98626 -72.288915,-118.24126 -91.978,-61.002 -99.066,-37.509 -65.999,-24.806 -33.159,-12.19 -0.32,0.426 -0.213,0.284 -0.106,0.142 0,0"
             style="fill:#4d4d4d;fill-opacity:1;fill-rule:nonzero;stroke:none"
             id="path38" />
        </g>
        <g
           style="fill:#4d4d4d"
           id="g40"
           transform="translate(275.5289,409.8857)">
          <path
             sodipodi:nodetypes="ccccc"
             d="M 0,0 C 31.039,-12.251 62.078,-24.502 93.191,-36.784 86.903,-61.49 70.257585,-121.71645 63.876585,-146.78345 38.782585,-109.62745 -0.82065624,-42.329155 -0.356,-0.529 -0.237,-0.353 -0.119,-0.176 0,0"
             style="fill:#4d4d4d;fill-opacity:1;fill-rule:nonzero;stroke:none"
             id="path42" />
        </g>
        <g
           style="fill:#4d4d4d"
           id="g44"
           transform="translate(607.2012,382.853)">
          <path
             d="m 0,0 c 0.303,0.388 0.34,0.468 0.402,0.512 3.908,2.763 3.91,2.768 8.2,0.502 44.458,-23.492 88.915,-46.985 133.371,-70.48 1.053,-0.556 2.096,-1.131 3.181,-1.717 -1.336,-1.31 -39.702,-20.48 -45.259,-22.633 C 66.678,-62.62 33.365,-31.334 0,0"
             style="fill:#4d4d4d;fill-opacity:1;fill-rule:nonzero;stroke:none"
             id="path46" />
        </g>
        <g
           style="fill:#4d4d4d"
           id="g48"
           transform="translate(125.4918,287.872)">
          <path
             d="m 0,0 c -15.044,7.413 -29.915,14.741 -45.279,22.312 47.24,25.039 93.979,49.813 140.8,74.63 1.472,-0.882 2.888,-1.731 4.616,-2.766 C 66.692,62.722 33.452,31.461 0,0"
             style="fill:#4d4d4d;fill-opacity:1;fill-rule:nonzero;stroke:none"
             id="path50" />
        </g>
        <g
           style="fill:#4d4d4d"
           id="g52"
           transform="translate(415.7227,4e-4)" />
        <g
           style="fill:#4d4d4d"
           id="g56"
           transform="translate(217.4849,386.9394)">
          <path
             d="m 0,0 c -0.75,-0.483 -1.243,-0.855 -1.782,-1.141 -29.098,-15.426 -58.2,-30.845 -87.302,-46.266 -16.599,-8.797 -33.208,-17.574 -49.779,-26.424 -1.492,-0.797 -2.642,-0.891 -4.189,-0.107 -8.558,4.333 -17.178,8.542 -25.775,12.8 -0.631,0.313 -1.237,0.675 -2.09,1.142 2.164,2.678 4.159,5.266 6.305,7.721 0.524,0.6 1.517,0.835 2.335,1.126 15.739,5.599 31.485,11.18 47.228,16.769 35.476,12.594 70.955,25.181 106.417,37.815 1.421,0.506 2.527,0.524 3.773,-0.382 C -3.386,1.981 -1.774,1.101 0,0"
             style="fill:#4d4d4d;fill-opacity:1;fill-rule:nonzero;stroke:none"
             id="path58" />
        </g>
        <g
           style="fill:#4d4d4d"
           id="g60"
           transform="translate(786.0333,327.9355)">
          <path
             d="m 0,0 c -0.896,-0.498 -1.561,-0.904 -2.255,-1.247 -8.454,-4.182 -16.932,-8.316 -25.35,-12.569 -1.411,-0.712 -2.448,-0.575 -3.762,0.122 C -64.92,4.08 -98.49,21.82 -132.059,39.564 c -11.942,6.313 -23.889,12.618 -35.833,18.93 -0.842,0.445 -1.672,0.915 -2.888,1.583 2.193,1.492 4.196,2.755 6.31,3.784 0.572,0.279 1.544,-0.077 2.267,-0.33 6.939,-2.43 13.865,-4.901 20.795,-7.359 C -97.193,40.483 -52.98,24.79 -8.756,9.129 -7.256,8.598 -6.112,7.8 -5.165,6.527 -3.554,4.36 -1.818,2.284 0,0"
             style="fill:#4d4d4d;fill-opacity:1;fill-rule:nonzero;stroke:none"
             id="path62" />
        </g>
        <g
           style="fill:#4d4d4d"
           id="g64"
           transform="translate(704.0098,287.3525)">
          <path
             d="m 0,0 c -12.191,-6.015 -23.997,-11.839 -36.067,-17.794 -23.824,35.704 -47.582,71.313 -71.477,107.125 2.558,1.564 4.917,3.005 7.537,4.607 C -66.767,62.715 -33.573,31.536 0,0"
             style="fill:#4d4d4d;fill-opacity:1;fill-rule:nonzero;stroke:none"
             id="path66" />
        </g>
        <g
           style="fill:#4d4d4d"
           id="g68"
           transform="translate(228.6363,380.2358)">
          <path
             d="m 0,0 c 2.517,-1.522 4.89,-2.957 7.56,-4.571 -23.842,-35.745 -47.588,-71.348 -71.469,-107.152 -11.92,5.885 -23.716,11.709 -35.417,17.485 -0.055,0.244 -0.082,0.321 -0.088,0.399 -0.006,0.075 -0.021,0.183 0.02,0.223 3.512,3.374 7.001,6.772 10.549,10.109 C -59.271,-55.698 -29.686,-27.899 0,0"
             style="fill:#4d4d4d;fill-opacity:1;fill-rule:nonzero;stroke:none"
             id="path70" />
        </g>
        <g
           style="fill:#4d4d4d"
           id="g72"
           transform="translate(239.0572,373.9531)">
          <path
             d="m 0,0 c 2.63,-1.582 5.009,-3.013 7.62,-4.583 -14.149,-40.079 -28.266,-80.065 -42.487,-120.35 -12.22,6.031 -24.164,11.926 -36.438,17.983 C -47.516,-71.27 -23.847,-35.769 0,0"
             style="fill:#4d4d4d;fill-opacity:1;fill-rule:nonzero;stroke:none"
             id="path74" />
        </g>
        <g
           style="fill:#4d4d4d"
           id="g76"
           transform="translate(664.9073,268.0493)">
          <path
             d="m 0,0 c -12.259,-6.047 -24.141,-11.908 -36.328,-17.92 -14.244,40.174 -28.408,80.121 -42.617,120.197 2.054,1.273 3.939,2.452 5.839,3.606 0.533,0.325 1.113,0.574 1.863,0.954 C -47.524,71.269 -23.857,35.776 0,0"
             style="fill:#4d4d4d;fill-opacity:1;fill-rule:nonzero;stroke:none"
             id="path78" />
        </g>
        <g
           style="fill:#4d4d4d"
           id="g80"
           transform="translate(9.2281,343.4072)">
          <path
             d="m 0,0 c 3.118,1.424 6.231,2.858 9.354,4.271 15.222,6.887 30.461,13.739 45.659,20.679 2.893,1.321 5.961,1.793 9.003,2.411 39.246,7.977 78.498,15.923 117.749,23.875 2.977,0.603 5.966,1.151 8.929,1.818 1.026,0.231 1.846,0.086 2.706,-0.48 1.307,-0.86 2.671,-1.632 4.37,-2.657 -1.167,-0.464 -1.871,-0.771 -2.593,-1.027 C 144.857,31.021 94.547,13.127 44.192,-4.639 40.925,-5.792 37.295,-5.886 33.863,-6.607 30.335,-7.348 26.935,-7.041 23.458,-6.157 16.176,-4.306 8.84,-2.669 1.528,-0.937 1.006,-0.813 0.5,-0.627 -0.014,-0.47 -0.009,-0.313 -0.005,-0.157 0,0"
             style="fill:#4d4d4d;fill-opacity:1;fill-rule:nonzero;stroke:none"
             id="path82" />
        </g>
        <g
           style="fill:#4d4d4d"
           id="g84"
           transform="translate(626.1407,394.312)">
          <path
             d="m 0,0 c 0.226,0.354 0.254,0.443 0.314,0.485 4.389,3.043 4.394,3.064 9.676,1.996 36.055,-7.29 72.108,-14.589 108.16,-21.885 6.584,-1.332 13.171,-2.651 19.749,-4.009 0.93,-0.191 1.86,-0.483 2.724,-0.872 18.305,-8.239 36.6,-16.498 54.894,-24.76 0.636,-0.288 1.241,-0.648 2.187,-1.146 -0.962,-0.299 -1.547,-0.52 -2.15,-0.662 -8.329,-1.96 -16.654,-3.94 -24.998,-5.83 -1.29,-0.292 -2.68,-0.244 -4.017,-0.194 -1.193,0.044 -2.372,0.389 -3.565,0.463 -7.734,0.476 -14.701,3.674 -21.839,6.199 C 103.895,-37.038 66.678,-23.792 29.454,-10.57 20.412,-7.358 11.37,-4.146 2.33,-0.927 1.593,-0.665 0.875,-0.35 0,0"
             style="fill:#4d4d4d;fill-opacity:1;fill-rule:nonzero;stroke:none"
             id="path86" />
        </g>
        <g
           style="fill:#4d4d4d"
           id="g88"
           transform="translate(196.401,399.1547)">
          <path
             d="m 0,0 c -3.748,-0.767 -7.495,-1.541 -11.244,-2.301 -39.021,-7.914 -78.042,-15.828 -117.067,-23.724 -1.166,-0.236 -2.371,-0.385 -3.559,-0.388 -14.157,-0.026 -28.314,-0.003 -42.471,-0.038 -1.422,-0.004 -2.613,0.311 -3.8,1.119 -5.354,3.646 -10.76,7.216 -16.142,10.82 -0.581,0.389 -1.13,0.828 -2.118,1.556 1.212,0.2 1.953,0.348 2.701,0.442 18.804,2.361 37.618,4.635 56.408,7.101 13.646,1.79 27.352,2.881 41.063,3.961 15.387,1.213 30.771,2.463 46.156,3.688 10.922,0.869 21.845,1.726 32.767,2.587 2.551,0.2 5.101,0.427 7.656,0.573 0.689,0.039 1.5,0.015 2.07,-0.307 C -5.016,3.641 -2.519,2.074 0.002,0.55 0.001,0.367 0,0.184 0,0"
             style="fill:#4d4d4d;fill-opacity:1;fill-rule:nonzero;stroke:none"
             id="path90" />
        </g>
        <g
           style="fill:#4d4d4d"
           id="g92"
           transform="translate(550.2188,331.1567)">
          <path
             d="m 0,0 c 3.181,-31.961 6.361,-63.922 9.568,-96.141 -14.675,-3.155 -29.155,-6.268 -44.036,-9.467 0.516,3.339 0.946,6.238 1.414,9.131 3.631,22.412 7.273,44.823 10.898,67.236 0.207,1.28 0.541,2.433 1.38,3.501 6.421,8.177 12.789,16.395 19.178,24.595 0.333,0.428 0.719,0.814 1.079,1.219 C -0.346,0.049 -0.173,0.024 0,0"
             style="fill:#4d4d4d;fill-opacity:1;fill-rule:nonzero;stroke:none"
             id="path94" />
        </g>
        <g
           style="fill:#4d4d4d"
           id="g96"
           transform="translate(832.17,386.7827)">
          <path
             d="m 0,0 c -0.778,-0.535 -1.552,-1.08 -2.338,-1.604 -5.19,-3.457 -10.391,-6.9 -15.57,-10.372 -1.024,-0.687 -2.054,-1.069 -3.334,-1.066 -14.235,0.04 -28.469,-0.06 -42.701,0.095 -2.994,0.032 -5.994,0.871 -8.964,1.471 -40.274,8.126 -80.542,16.276 -120.811,24.424 -0.702,0.142 -1.395,0.331 -2.37,0.565 0.526,0.478 0.86,0.884 1.283,1.146 1.971,1.221 3.928,2.474 5.972,3.563 0.789,0.42 1.812,0.666 2.697,0.599 10.125,-0.77 20.243,-1.621 30.365,-2.44 14.663,-1.186 29.327,-2.361 43.991,-3.548 10.678,-0.863 21.377,-1.536 32.029,-2.655 14.942,-1.571 29.853,-3.448 44.77,-5.247 10.874,-1.312 21.737,-2.708 32.604,-4.073 0.774,-0.097 1.544,-0.243 2.315,-0.366 z"
             style="fill:#4d4d4d;fill-opacity:1;fill-rule:nonzero;stroke:none"
             id="path98" />
        </g>
        <g
           style="fill:#4d4d4d"
           id="g100"
           transform="translate(174.6588,416.81)">
          <path
             sodipodi:nodetypes="cccc"
             d="M 0,0 C 29.541989,-0.95628913 70.280063,-2.9687465 95.405936,-5.9150389 91.988936,-21.133039 100.73142,-47.370311 108.6473,-63.346608 80.880303,-46.566608 27.889,-16.854 0,0"
             style="fill:#4d4d4d;fill-opacity:1;fill-rule:nonzero;stroke:none"
             id="path102" />
        </g>
        <g
           style="fill:#4d4d4d"
           id="g104"
           transform="translate(316.8175,224.5776)">
          <path
             d="m 0,0 c -14.745,3.149 -29.104,6.215 -43.696,9.331 3.132,32.127 6.244,64.058 9.4,96.424 0.706,-0.665 1.127,-0.971 1.434,-1.365 6.439,-8.259 12.881,-16.515 19.264,-24.815 0.599,-0.78 1.021,-1.819 1.181,-2.794 C -8.869,55.257 -5.371,33.724 -1.861,12.193 -1.308,8.802 -0.733,5.414 -0.183,2.022 -0.097,1.493 -0.083,0.951 0,0"
             style="fill:#4d4d4d;fill-opacity:1;fill-rule:nonzero;stroke:none"
             id="path106" />
        </g>
        <g
           style="fill:#4d4d4d"
           id="g108"
           transform="translate(574.8018,367.998)">
          <path
             sodipodi:nodetypes="ccc"
             d="M -21.812297,-11.533569 C -16.892686,3.8355792 -6.513,30.253 -9.823,45.631 c 46.798035,2.886253 45.579387,4.761125 92.503,4.457"
             style="fill:#4d4d4d;fill-opacity:1;fill-rule:nonzero;stroke:none"
             id="path110" />
        </g>
        <g
           style="fill:#4d4d4d"
           id="g112"
           transform="translate(821.2725,428.8466)">
          <path
             d="m 0,0 c -0.71,-0.65 -1.065,-1.035 -1.478,-1.344 -8.117,-6.098 -16.227,-12.204 -24.381,-18.251 -0.865,-0.64 -1.953,-1.118 -3.007,-1.343 -11.722,-2.506 -23.453,-4.963 -35.194,-7.38 -1.228,-0.253 -2.539,-0.308 -3.793,-0.21 -15.379,1.202 -30.756,2.447 -46.133,3.69 -18.246,1.474 -36.491,2.955 -54.736,4.441 -0.706,0.057 -1.407,0.19 -2.443,0.335 0.615,0.522 0.969,0.909 1.397,1.173 3.064,1.884 6.122,3.781 9.233,5.584 0.796,0.461 1.763,0.78 2.677,0.859 17.281,1.492 34.564,2.964 51.851,4.39 19.029,1.569 38.061,3.129 57.097,4.616 15.46,1.206 30.93,2.299 46.395,3.434 C -1.833,0.043 -1.145,0 0,0"
             style="fill:#4d4d4d;fill-opacity:1;fill-rule:nonzero;stroke:none"
             id="path114" />
        </g>
        <g
           style="fill:#4d4d4d"
           id="g116"
           transform="translate(260.4713,359.1562)">
          <path
             d="m 0,0 c 2.308,-2.947 4.621,-5.888 6.921,-8.84 3.588,-4.604 7.123,-9.25 10.775,-13.802 1.033,-1.286 1.394,-2.547 1.228,-4.166 -1.077,-10.497 -2.091,-21.001 -3.117,-31.503 -1.035,-10.582 -2.063,-21.165 -3.09,-31.748 -1.019,-10.503 -2.03,-21.006 -3.055,-31.509 -0.085,-0.863 -0.254,-1.717 -0.436,-2.917 -8.442,1.806 -16.757,3.586 -25.407,5.438 5.187,39.718 10.425,79.28 15.633,118.847 0.183,0.066 0.365,0.133 0.548,0.2"
             style="fill:#4d4d4d;fill-opacity:1;fill-rule:nonzero;stroke:none"
             id="path118" />
        </g>
        <g
           style="fill:#4d4d4d"
           id="g120"
           transform="translate(591.5967,241.8212)">
          <path
             d="m 0,0 c -0.556,4.173 -1.065,7.962 -1.564,11.752 -2.369,17.991 -4.739,35.982 -7.101,53.975 -2.403,18.309 -4.796,36.62 -7.206,54.929 -0.122,0.928 -0.134,1.696 0.838,2.247 2.074,1.178 4.101,2.437 6.465,3.852 C 5.567,86.891 19.625,47.247 33.803,7.267 22.451,4.827 11.398,2.45 0,0"
             style="fill:#4d4d4d;fill-opacity:1;fill-rule:nonzero;stroke:none"
             id="path122" />
        </g>
        <g
           style="fill:#4d4d4d"
           id="g124"
           transform="translate(182.5372,407.706)">
          <path
             d="m 0,0 c -3.022,-0.267 -5.638,-0.517 -8.257,-0.725 -18.967,-1.504 -37.934,-2.991 -56.901,-4.5 -12.909,-1.026 -25.816,-2.087 -38.727,-3.097 -1.097,-0.086 -2.244,-0.043 -3.318,0.178 -11.741,2.42 -23.475,4.876 -35.201,7.366 -0.908,0.193 -1.863,0.555 -2.601,1.102 -8.479,6.281 -16.921,12.614 -25.369,18.937 -0.185,0.139 -0.32,0.342 -0.694,0.749 0.691,0.058 1.179,0.166 1.657,0.131 16.024,-1.187 32.047,-2.397 48.071,-3.581 13.952,-1.032 27.91,-1.981 41.857,-3.071 9.64,-0.753 19.267,-1.681 28.9,-2.532 10.192,-0.901 20.384,-1.805 30.577,-2.704 2.229,-0.196 4.465,-0.333 6.687,-0.593 0.848,-0.099 1.752,-0.317 2.48,-0.739 C -7.451,4.957 -4.114,2.905 -0.766,0.873 -0.582,0.761 -0.465,0.538 0,0"
             style="fill:#4d4d4d;fill-opacity:1;fill-rule:nonzero;stroke:none"
             id="path126" />
        </g>
        <g
           style="fill:#4d4d4d"
           id="g128"
           transform="translate(240.8946,240.7958)">
          <path
             d="m 0,0 c -11.236,2.428 -22.225,4.803 -33.515,7.243 14.11,39.928 28.127,79.594 42.231,119.503 2.388,-1.441 4.486,-2.725 6.603,-3.975 0.887,-0.523 0.757,-1.313 0.657,-2.11 -0.369,-2.935 -0.735,-5.87 -1.121,-8.803 C 12.809,96.324 10.76,80.791 8.708,65.258 6.383,47.665 4.052,30.073 1.728,12.479 1.33,9.468 0.965,6.452 0.564,3.44 0.419,2.352 0.21,1.271 0,0"
             style="fill:#4d4d4d;fill-opacity:1;fill-rule:nonzero;stroke:none"
             id="path130" />
        </g>
        <g
           style="fill:#4d4d4d"
           id="g132"
           transform="translate(563.0919,235.7397)">
          <path
             d="m 0,0 c -0.504,5.023 -0.967,9.624 -1.427,14.225 -1.383,13.839 -2.77,27.679 -4.145,41.519 -1.422,14.319 -2.847,28.636 -4.211,42.96 -0.074,0.782 0.185,1.785 0.659,2.401 5.805,7.538 11.677,15.022 17.541,22.515 0.225,0.287 0.538,0.506 1.132,1.052 C 14.792,84.71 19.982,45.143 25.201,5.365 16.725,3.561 8.541,1.818 0,0"
             style="fill:#4d4d4d;fill-opacity:1;fill-rule:nonzero;stroke:none"
             id="path134" />
        </g>
        <g
           style="fill:#4d4d4d"
           id="g136"
           transform="translate(367.0587,42.9594)">
          <path
             d="m 0,0 h -16.331 c -0.351,0.751 -0.744,1.519 -1.075,2.312 -2.527,6.045 -5.001,12.115 -7.591,18.133 -0.589,1.371 -0.592,2.427 0.112,3.793 12.64,24.506 25.217,49.044 37.808,73.575 4.744,9.243 9.49,18.486 14.241,27.726 0.351,0.683 0.754,1.338 1.353,2.395 1.561,-2.719 3.028,-5.072 4.253,-7.544 0.323,-0.654 0.022,-1.712 -0.202,-2.528 C 28.172,101.834 23.748,85.813 19.325,69.792 13.116,47.301 6.904,24.811 0.69,2.32 0.499,1.628 0.281,0.943 0,0"
             style="fill:#4d4d4d;fill-opacity:1;fill-rule:nonzero;stroke:none"
             id="path138" />
        </g>
        <g
           style="fill:#4d4d4d"
           id="g140"
           transform="translate(437.1788,171.5697)">
          <path
             d="m 0,0 c 0.57,-0.97 0.953,-1.554 1.271,-2.171 17.171,-33.414 34.321,-66.841 51.547,-100.227 1.012,-1.963 1.138,-3.548 0.233,-5.582 -2.532,-5.694 -4.833,-11.492 -7.231,-17.247 -0.336,-0.804 -0.707,-1.594 -1.081,-2.436 H 28.826 c -0.283,0.951 -0.588,1.919 -0.86,2.895 -10.211,36.645 -20.42,73.29 -30.628,109.936 -0.515,1.848 -1.057,3.688 -1.529,5.547 -0.152,0.594 -0.373,1.372 -0.126,1.832 C -3.014,-5.027 -1.57,-2.676 0,0"
             style="fill:#4d4d4d;fill-opacity:1;fill-rule:nonzero;stroke:none"
             id="path142" />
        </g>
        <g
           style="fill:#4d4d4d"
           id="g144"
           transform="translate(64.7384,463.9599)" />
        <g
           style="fill:#4d4d4d"
           id="g148"
           transform="translate(767.794,464.6611)" />
        <g
           style="fill:#4d4d4d"
           id="g152"
           transform="translate(453.6505,23.7768)">
          <path
             sodipodi:nodetypes="ccccccccc"
             d="M 0,0 C -4.064,1.163 -26.232159,10.85064 -30.207159,11.98864 -30.483924,54.599396 -30.3905,80.45815 -31.136,120.499 c 0.08514,4.92407 4.237923,9.64497 6.543,13.535 0.267,0.448 0.622,0.843 1.141,1.533 0.345,-1.036 0.619,-1.757 0.826,-2.498 C -12.167,95.504 -1.709,57.938 8.715,20.361 8.954,19.5 9.123,18.369 8.769,17.632 5.966,11.804 3.026,6.041 0,0"
             style="fill:#4d4d4d;fill-opacity:1;fill-rule:nonzero;stroke:none"
             id="path154" />
        </g>
        <g
           style="fill:#4d4d4d"
           id="g156"
           transform="translate(379.0558,22.7553)">
          <path
             sodipodi:nodetypes="ccccccccccc"
             d="m 0,0 c -0.38,0.682 -0.666,1.152 -0.911,1.643 -2.399,4.787 -4.745,9.601 -7.213,14.353 -0.716,1.379 -0.808,2.594 -0.392,4.094 9.091,32.806 18.131,65.625 27.182,98.442 1.338,4.853 2.675,9.707 4.021,14.558 0.207,0.747 0.459,1.481 0.793,2.549 0.531,-0.748 0.922,-1.216 1.223,-1.735 1.805,-3.111 3.528,-6.273 5.411,-9.336 C 31.133093,86.204269 30.109624,43.500843 28.965957,10.687265 20.480914,7.7664807 8.9227813,2.532372 0,0"
             style="fill:#4d4d4d;fill-opacity:1;fill-rule:nonzero;stroke:none"
             id="path158" />
        </g>
        <g
           style="fill:#4d4d4d"
           id="g160"
           transform="translate(326.5455,67.1967)">
          <path
             d="m 0,0 c -0.43,2.361 -0.812,4.476 -1.201,6.588 -0.724,3.929 -1.419,7.863 -2.197,11.782 -0.283,1.425 -0.031,2.57 0.801,3.806 20.806,30.89 41.572,61.809 62.347,92.72 0.395,0.587 0.824,1.151 1.443,2.009 1.874,-3.151 3.695,-6.044 5.295,-9.053 0.302,-0.566 -0.108,-1.682 -0.472,-2.403 C 62.668,98.814 59.262,92.21 55.866,85.6 41.735,58.092 27.607,30.583 13.462,3.083 11.574,-0.589 12.479,0.059 8.451,0.007 5.672,-0.029 2.892,0 0,0"
             style="fill:#4d4d4d;fill-opacity:1;fill-rule:nonzero;stroke:none"
             id="path162" />
        </g>
        <g
           style="fill:#4d4d4d"
           id="g164"
           transform="translate(445.1007,185.0668)">
          <path
             d="m 0,0 c 2.457,-3.652 4.646,-6.893 6.819,-10.142 18.861,-28.182 37.708,-56.375 56.61,-84.531 0.925,-1.378 1.198,-2.599 0.878,-4.214 -1.075,-5.411 -1.997,-10.851 -2.991,-16.278 -0.085,-0.461 -0.267,-0.903 -0.475,-1.59 -3.66,0 -7.321,-0.006 -10.982,0.003 -1.145,0.003 -1.34,1.009 -1.725,1.753 -2.826,5.471 -5.628,10.954 -8.44,16.432 -14.824,28.884 -29.634,57.777 -44.509,86.634 -0.802,1.556 -0.813,2.688 0.147,4.133 1.581,2.38 2.95,4.902 4.668,7.8"
             style="fill:#4d4d4d;fill-opacity:1;fill-rule:nonzero;stroke:none"
             id="path166" />
        </g>
        <g
           style="fill:#4d4d4d"
           id="g168"
           transform="translate(512.0987,91.1674)" />
        <g
           style="fill:#4d4d4d"
           id="g172"
           transform="translate(379.1788,198.2778)" />
        <g
           style="fill:#4d4d4d"
           id="g176"
           transform="translate(525.8663,121.4946)" />
        <g
           style="fill:#4d4d4d"
           id="g180"
           transform="translate(306.8814,120.3559)" />
        <g
           style="fill:#4d4d4d"
           id="g184"
           transform="translate(523.96,297.4755)" />
        <g
           style="fill:#4d4d4d"
           id="g188"
           transform="translate(355.9459,236.4545)" />
        <g
           style="fill:#4d4d4d"
           id="g192"
           transform="translate(332.1187,430.7299)">
          <path
             sodipodi:nodetypes="ccccccc"
             d="m 12.049,6.599 c 10.486,1.229 20.889,0.32 31.318,-0.393 0.312,-0.021 0.62,-0.115 1.215,-0.23 0.832,-3.549 1.68,-7.164 2.575,-10.981 -6.012,-4.276 -11.981,-8.521 -18.072,-12.853 -6.934962,3.154446 0.298778,11.2558019 -21.599,16.602 -2.441,0.155 -4.87,0.514 -7.304,0.787"
             style="fill:#4d4d4d;fill-opacity:1;fill-rule:nonzero;stroke:none"
             id="path194" />
        </g>
        <g
           style="fill:#4d4d4d"
           id="g196"
           transform="translate(391.1187,422.8549)" />
      </g>
    </g>
  </g>
</svg>
